<!-- public/google-logo.svg -->
<svg width="18" height="18" viewBox="0 0 48 48">
  <path fill="#EA4335" d="M24 9.5c3.13 0 5.89 1.08 8.09 2.85l6.03-6.03C34.6 2.55 29.67 0 24 0 14.61 0 6.69 5.73 2.69 14.01l7.05 5.48C11.94 13.13 17.5 9.5 24 9.5z"/>
  <path fill="#4285F4" d="M46.5 24c0-1.34-.11-2.64-.3-3.9H24v7.39h12.75c-.56 3.01-2.22 5.56-4.69 7.28l7.21 5.61C43.6 35.3 46.5 30.1 46.5 24z"/>
  <path fill="#FBBC05" d="M9.74 28.49c-.47-1.4-.74-2.89-.74-4.49s.27-3.09.74-4.49L2.69 14.01C1.03 17.3 0 20.97 0 24.99c0 4.02 1.03 7.69 2.69 10.98l7.05-5.48z"/>
  <path fill="#34A853" d="M24 48c5.67 0 10.44-1.87 13.92-5.1l-7.21-5.61c-2.01 1.34-4.58 2.12-6.71 2.12-6.5 0-12.06-3.63-14.26-8.99l-7.05 5.48C6.69 42.27 14.61 48 24 48z"/>
  <path fill="none" d="M0 0h48v48H0z"/>
</svg>
